<svg xmlns="http://www.w3.org/2000/svg" viewBox="0 0 400 300" fill="none">
  <rect width="400" height="300" rx="12" fill="#0d1117"/>
  <path d="M200 60c-44.18 0-80 35.82-80 80 0 35.36 22.93 65.37 54.75 75.94 4 .73 5.47-1.74 5.47-3.86 0-1.9-.07-6.94-.11-13.62-22.28 4.84-26.98-10.74-26.98-10.74-3.64-9.26-8.89-11.72-8.89-11.72-7.27-4.97.55-4.87.55-4.87 8.04.57 12.27 8.25 12.27 8.25 7.14 12.24 18.74 8.7 23.31 6.65.73-5.17 2.8-8.7 5.08-10.7-17.78-2.02-36.47-8.89-36.47-39.56 0-8.74 3.12-15.89 8.24-21.49-.83-2.02-3.57-10.16.78-21.18 0 0 6.72-2.15 22.01 8.21 6.38-1.77 13.22-2.66 20.02-2.69 6.79.03 13.63.92 20.02 2.69 15.28-10.36 21.99-8.21 21.99-8.21 4.36 11.02 1.62 19.16.79 21.18 5.13 5.6 8.23 12.75 8.23 21.49 0 30.76-18.72 37.51-36.56 39.49 2.87 2.48 5.43 7.37 5.43 14.85 0 10.72-.1 19.37-.1 22.01 0 2.14 1.45 4.63 5.5 3.85C257.1 205.33 280 175.34 280 140c0-44.18-35.82-80-80-80z" fill="#c9d1d9"/>
  <text x="200" y="260" text-anchor="middle" fill="#8b949e" font-family="Arial, sans-serif" font-size="16">Open Source Projects</text>
</svg>
